<svg width="17" height="17" viewBox="0 0 17 17" fill="none" xmlns="http://www.w3.org/2000/svg">
<path d="M14.5098 8.90337H12.8457C12.6192 8.90337 12.3999 8.93431 12.1913 8.99122C11.7796 8.182 10.9392 7.62598 9.97073 7.62598H7.02927C6.06083 7.62598 5.22039 8.182 4.80874 8.99122C4.60006 8.93431 4.38079 8.90337 4.15431 8.90337H2.49023C1.11712 8.90337 0 10.0205 0 11.3936V14.0538C0 14.8776 0.670272 15.5479 1.49414 15.5479H15.5059C16.3297 15.5479 17 14.8776 17 14.0538V11.3936C17 10.0205 15.8829 8.90337 14.5098 8.90337ZM4.53903 10.1163V14.5518H1.49414C1.21952 14.5518 0.996094 14.3284 0.996094 14.0538V11.3936C0.996094 10.5698 1.66637 9.89949 2.49023 9.89949H4.15431C4.28951 9.89949 4.42043 9.91786 4.54508 9.95169C4.54149 10.0062 4.53903 10.061 4.53903 10.1163ZM11.4649 14.5518H5.53513V10.1162C5.53513 9.29238 6.2054 8.6221 7.02927 8.6221H9.97073C10.7946 8.6221 11.4649 9.29238 11.4649 10.1162V14.5518ZM16.0039 14.0538C16.0039 14.3284 15.7805 14.5518 15.5059 14.5518H12.461V10.1162C12.461 10.0609 12.4585 10.0061 12.4549 9.95166C12.5796 9.91786 12.7105 9.89946 12.8457 9.89946H14.5098C15.3336 9.89946 16.0039 10.5697 16.0039 11.3936V14.0538Z" fill="white"/>
<path d="M3.32223 4.20044C2.10205 4.20044 1.10938 5.19311 1.10938 6.41329C1.10934 7.63348 2.10205 8.62615 3.32223 8.62615C4.54238 8.62615 5.53509 7.63348 5.53509 6.41329C5.53509 5.19311 4.54241 4.20044 3.32223 4.20044ZM3.3222 7.63006C2.65126 7.63006 2.10544 7.08423 2.10544 6.41329C2.10544 5.74236 2.65126 5.19653 3.3222 5.19653C3.99313 5.19653 4.53896 5.74236 4.53896 6.41329C4.53896 7.08423 3.99313 7.63006 3.3222 7.63006Z" fill="#52C4FF"/>
<path d="M8.50029 1.4519C6.87014 1.4519 5.54395 2.7781 5.54395 4.40824C5.54395 6.03838 6.87014 7.36458 8.50029 7.36458C10.1304 7.36458 11.4566 6.03838 11.4566 4.40824C11.4566 2.77814 10.1304 1.4519 8.50029 1.4519ZM8.50029 6.36849C7.41939 6.36849 6.54004 5.48914 6.54004 4.40824C6.54004 3.32738 7.41939 2.448 8.50029 2.448C9.58118 2.448 10.4605 3.32735 10.4605 4.40824C10.4605 5.48914 9.58118 6.36849 8.50029 6.36849Z" fill="#52C4FF"/>
<path d="M13.6777 4.20044C12.4576 4.20044 11.4648 5.19311 11.4648 6.41329C11.4649 7.63348 12.4576 8.62615 13.6777 8.62615C14.8979 8.62615 15.8906 7.63348 15.8906 6.41329C15.8906 5.19311 14.8979 4.20044 13.6777 4.20044ZM13.6777 7.63006C13.0068 7.63006 12.4609 7.08423 12.4609 6.41329C12.461 5.74236 13.0068 5.19653 13.6777 5.19653C14.3486 5.19653 14.8945 5.74236 14.8945 6.41329C14.8945 7.08423 14.3486 7.63006 13.6777 7.63006Z" fill="#52C4FF"/>
</svg>
