<svg width="14" height="14" viewBox="0 0 14 14" fill="none" xmlns="http://www.w3.org/2000/svg">
<g clip-path="url(#clip0)">
<path d="M9.17695 5.80835H0.938328C0.42093 5.80835 0 6.22931 0 6.74671V12.4518C0 12.9692 0.42093 13.3901 0.938328 13.3901H9.17695C9.69434 13.3901 10.1153 12.969 10.1153 12.4518V6.74671C10.1153 6.22931 9.69434 5.80835 9.17695 5.80835ZM8.98929 12.2641H1.12602V6.93437H8.98929V12.2641Z" fill="white"/>
<path d="M13.7453 6.46295C13.586 6.35918 13.3848 6.34267 13.2107 6.41923L9.28857 8.14577L9.74234 9.17644L12.8745 7.79746V11.4275L9.73802 10.0767L9.29268 11.1111L13.2147 12.8001C13.2862 12.8307 13.3621 12.8459 13.4375 12.8459C13.5458 12.8459 13.6537 12.8146 13.747 12.7534C13.9052 12.6492 14.0005 12.4726 14.0005 12.2831V6.93458C14.0005 6.74426 13.9046 6.56694 13.7453 6.46295Z" fill="white"/>
<path d="M2.3081 0.609863C1.04567 0.609863 0.0185547 1.63698 0.0185547 2.89941C0.0185547 4.16184 1.04567 5.18896 2.3081 5.18896C3.57054 5.18896 4.59765 4.16184 4.59765 2.89941C4.59765 1.63695 3.57054 0.609863 2.3081 0.609863ZM2.3081 4.06294C1.66645 4.06294 1.14457 3.54084 1.14457 2.89941C1.14457 2.25776 1.66667 1.73588 2.3081 1.73588C2.94975 1.73588 3.47163 2.25779 3.47163 2.89941C3.47163 3.54103 2.94975 4.06294 2.3081 4.06294Z" fill="#52C4FF"/>
<path d="M7.52588 0.609863C6.26344 0.609863 5.23633 1.63698 5.23633 2.89941C5.23633 4.16184 6.26344 5.18896 7.52588 5.18896C8.78831 5.18896 9.81543 4.16184 9.81543 2.89941C9.81543 1.63695 8.7885 0.609863 7.52588 0.609863ZM7.52588 4.06294C6.88423 4.06294 6.36234 3.54084 6.36234 2.89941C6.36234 2.25776 6.88445 1.73588 7.52588 1.73588C8.16753 1.73588 8.68941 2.25779 8.68941 2.89941C8.68941 3.54103 8.16753 4.06294 7.52588 4.06294Z" fill="#52C4FF"/>
</g>
<defs>
<clipPath id="clip0">
<rect width="14" height="14" fill="white"/>
</clipPath>
</defs>
</svg>
