<svg width="17" height="17" viewBox="0 0 17 17" fill="none" xmlns="http://www.w3.org/2000/svg">
    <path d="M8.50016 1.41675C6.54729 1.41675 4.9585 3.00554 4.9585 4.95842C4.9585 6.91129 6.54729 8.50008 8.50016 8.50008C10.453 8.50008 12.0418 6.91129 12.0418 4.95842C12.0418 3.00554 10.453 1.41675 8.50016 1.41675ZM8.50016 7.08342C7.32858 7.08342 6.37516 6.13 6.37516 4.95842C6.37516 3.78683 7.32858 2.83341 8.50016 2.83341C9.67175 2.83341 10.6252 3.78683 10.6252 4.95842C10.6252 6.13 9.67175 7.08342 8.50016 7.08342Z" fill="#52C4FF"/>
    <path d="M14.875 14.8749V14.1666C14.875 11.4331 12.6501 9.20825 9.91667 9.20825H7.08333C4.34917 9.20825 2.125 11.4331 2.125 14.1666V14.8749H3.54167V14.1666C3.54167 12.2137 5.13046 10.6249 7.08333 10.6249H9.91667C11.8695 10.6249 13.4583 12.2137 13.4583 14.1666V14.8749H14.875Z" fill="white"/>
</svg>