<svg width="15" height="15" viewBox="0 0 15 15" fill="none" xmlns="http://www.w3.org/2000/svg">
<path d="M5.15625 3.75V2.22656C5.15825 1.8853 5.2947 1.55858 5.53602 1.31727C5.77733 1.07595 6.10405 0.939499 6.44531 0.9375H9.19922C9.29519 0.937633 9.39018 0.956754 9.47872 0.993761C9.56727 1.03077 9.64762 1.08493 9.71514 1.15313L12.9129 4.40508C13.0488 4.54272 13.1251 4.72841 13.125 4.92188V9.96094C13.125 10.6729 12.5669 11.25 11.8667 11.25H10.0781" stroke="#52C4FF" stroke-width="1.4" stroke-linejoin="round"/>
<path d="M9.14062 0.9375V4.10156C9.14321 4.31832 9.23047 4.52547 9.38375 4.67875C9.53703 4.83203 9.74418 4.91929 9.96094 4.92188H13.125" stroke="#52C4FF" stroke-width="1.4" stroke-linecap="round" stroke-linejoin="round"/>
<path d="M9.84375 7.73818V12.7734C9.84375 13.4854 9.28564 14.0625 8.58545 14.0625H3.13477C2.43311 14.0625 1.875 13.4854 1.875 12.7734V5.03906C1.877 4.6978 2.01345 4.37108 2.25477 4.12977C2.49608 3.88845 2.8228 3.752 3.16406 3.75H5.92148C6.01693 3.75015 6.11139 3.76929 6.19936 3.8063C6.28733 3.84332 6.36706 3.89748 6.43389 3.96563L9.63164 7.21758C9.76769 7.3567 9.84384 7.54359 9.84375 7.73818V7.73818Z" stroke="white" stroke-width="1.4" stroke-linejoin="round"/>
<path d="M5.85938 3.75V6.91406C5.86196 7.13082 5.94922 7.33797 6.1025 7.49125C6.25578 7.64453 6.46293 7.73179 6.67969 7.73438H9.84375" stroke="white" stroke-width="1.4" stroke-linecap="round" stroke-linejoin="round"/>
</svg>
