<svg width="14" height="14" viewBox="0 0 14 14" fill="none" xmlns="http://www.w3.org/2000/svg">
<g clip-path="url(#clip0)">
<path d="M6.39555 7.3203L8.74612 4.96975C8.95968 4.75619 9.30593 4.75616 9.51951 4.96975C9.7331 5.18333 9.73307 5.52958 9.51949 5.74314L6.78224 8.48038C6.56863 8.69399 6.22238 8.69391 6.00885 8.48038L4.4805 6.95203C4.26692 6.73845 4.26692 6.3922 4.4805 6.17864C4.69408 5.96509 5.04034 5.96506 5.25389 6.17864L6.39555 7.3203Z" fill="#52C4FF"/>
<path d="M12.5691 2.26696L7.2097 0.0418052C7.07544 -0.0139214 6.92453 -0.0139487 6.7903 0.0418052L1.43093 2.26696C1.2268 2.35172 1.09375 2.551 1.09375 2.77202V5.47701C1.09375 9.20158 3.34493 12.5519 6.79334 13.9594C6.92579 14.0135 7.07418 14.0135 7.20666 13.9594C10.655 12.552 12.9062 9.20161 12.9062 5.47701V2.77202C12.9062 2.551 12.7732 2.35172 12.5691 2.26696ZM11.8125 5.47701C11.8125 8.64327 9.95312 11.558 7 12.8591C4.12579 11.5928 2.1875 8.72908 2.1875 5.47701V3.13712L7 1.139L11.8125 3.13712V5.47701Z" fill="white"/>
</g>
<defs>
<clipPath id="clip0">
<rect width="14" height="14" fill="white"/>
</clipPath>
</defs>
</svg>
