<svg width="15" height="14" viewBox="0 0 15 14" fill="none" xmlns="http://www.w3.org/2000/svg">
<path d="M11.1925 0.483252H3.9738C2.36814 0.483252 1.0665 1.78489 1.0665 3.39054V10.6093C1.0665 12.2149 2.36814 13.5166 3.9738 13.5166H11.1925C12.7982 13.5166 14.0998 12.2149 14.0998 10.6093V3.39054C14.0998 1.78489 12.7982 0.483252 11.1925 0.483252ZM13.0978 10.6093C13.0978 11.6615 12.2448 12.5145 11.1925 12.5145H3.9738C2.92157 12.5145 2.06859 11.6615 2.06859 10.6093V3.39054C2.06859 2.33832 2.92157 1.48534 3.9738 1.48534H11.1925C12.2448 1.48534 13.0978 2.33832 13.0978 3.39054V10.6093Z" fill="white" stroke="white" stroke-width="0.2"/>
<path d="M6.56217 3.5H4.52051C4.27888 3.5 4.08301 3.69588 4.08301 3.9375C4.08301 4.17912 4.27888 4.375 4.52051 4.375H6.56217C6.8038 4.375 6.99967 4.17912 6.99967 3.9375C6.99967 3.69588 6.8038 3.5 6.56217 3.5Z" fill="#52CDFF"/>
<path d="M10.6457 3.5H8.604C8.36238 3.5 8.1665 3.69588 8.1665 3.9375C8.1665 4.17912 8.36238 4.375 8.604 4.375H10.6457C10.8873 4.375 11.0832 4.17912 11.0832 3.9375C11.0832 3.69588 10.8873 3.5 10.6457 3.5Z" fill="#52CDFF"/>
<path d="M10.6455 9.33325H4.52051C4.27888 9.33325 4.08301 9.52913 4.08301 9.77075C4.08301 10.0124 4.27888 10.2083 4.52051 10.2083H10.6455C10.8871 10.2083 11.083 10.0124 11.083 9.77075C11.083 9.52913 10.8871 9.33325 10.6455 9.33325Z" fill="#52CDFF"/>
<path d="M10.6455 6.4165H4.52051C4.27888 6.4165 4.08301 6.61238 4.08301 6.854C4.08301 7.09563 4.27888 7.2915 4.52051 7.2915H10.6455C10.8871 7.2915 11.083 7.09563 11.083 6.854C11.083 6.61238 10.8871 6.4165 10.6455 6.4165Z" fill="#52CDFF"/>
</svg>
