<svg width="17" height="17" viewBox="0 0 17 17" fill="none" xmlns="http://www.w3.org/2000/svg">
<path d="M14.3438 8.59962H8.4004V2.65626C8.4004 2.58321 8.34063 2.52345 8.26759 2.52345H7.83595C6.96387 2.52202 6.10011 2.69304 5.29437 3.02668C4.48863 3.36031 3.75682 3.84997 3.14103 4.46749C2.53459 5.07206 2.05138 5.78869 1.71827 6.57755C1.37164 7.39574 1.19377 8.27549 1.19532 9.16407C1.19389 10.0362 1.36492 10.8999 1.69855 11.7057C2.03219 12.5114 2.52185 13.2432 3.13937 13.859C3.74864 14.4683 4.45919 14.9481 5.24942 15.2818C6.06761 15.6284 6.94736 15.8063 7.83595 15.8047C8.70803 15.8061 9.57178 15.6351 10.3775 15.3015C11.1833 14.9678 11.9151 14.4782 12.5309 13.8607C13.1401 13.2514 13.6199 12.5408 13.9536 11.7506C14.3003 10.9324 14.4781 10.0527 14.4766 9.16407V8.73243C14.4766 8.65939 14.4168 8.59962 14.3438 8.59962ZM11.7157 13.0787C11.2017 13.5888 10.592 13.9924 9.92168 14.2665C9.25136 14.5405 8.53355 14.6796 7.80938 14.6758C6.34679 14.6692 4.97218 14.0964 3.9379 13.0621C2.89698 12.0212 2.32423 10.6366 2.32423 9.16407C2.32423 7.69151 2.89698 6.30694 3.9379 5.26603C4.84435 4.35958 6.01143 3.80675 7.27149 3.68058V9.72853H13.3194C13.1916 10.9952 12.6338 12.169 11.7157 13.0787Z" fill="white"/>
<path d="M15.8047 7.67658L15.7615 7.20842C15.6204 5.67941 14.9414 4.23674 13.849 3.14767C12.7559 2.05661 11.3162 1.38137 9.77832 1.23849L9.3085 1.19533C9.23047 1.18869 9.16406 1.24845 9.16406 1.32648V7.70314C9.16406 7.77619 9.22383 7.83596 9.29688 7.83596L15.6719 7.81935C15.7499 7.81935 15.8113 7.75295 15.8047 7.67658ZM10.2896 6.71037V2.45041C11.3354 2.6693 12.2951 3.18721 13.0521 3.94123C13.8108 4.69826 14.3305 5.66115 14.5463 6.69875L10.2896 6.71037Z" fill="#52C4FF"/>
</svg>
