<svg width="23" height="24" viewBox="0 0 23 24" fill="none" xmlns="http://www.w3.org/2000/svg">
<g filter="url(#filter0_d)">
<path d="M17.6695 13.6567C17.421 13.7329 17.183 13.84 16.9612 13.9755C16.7355 14.1074 16.4788 14.177 16.2174 14.177C15.956 14.177 15.6993 14.1074 15.4737 13.9755C14.983 13.6987 14.4291 13.5532 13.8658 13.5532C13.3024 13.5532 12.7485 13.6987 12.2578 13.9755C12.0291 14.1059 11.7703 14.1745 11.507 14.1745C11.2437 14.1745 10.9849 14.1059 10.7562 13.9755C10.2651 13.7 9.71138 13.5553 9.14826 13.5553C8.58515 13.5553 8.03147 13.7 7.54035 13.9755C7.3147 14.1074 7.058 14.177 6.7966 14.177C6.53519 14.177 6.2785 14.1074 6.05285 13.9755C5.83102 13.84 5.59305 13.7329 5.34451 13.6567C5.25026 13.6232 5.14999 13.6101 5.05028 13.6181C4.95058 13.6261 4.8537 13.6552 4.76604 13.7034C4.67838 13.7516 4.60192 13.8178 4.54169 13.8976C4.48146 13.9775 4.43883 14.0692 4.4166 14.1667C4.36372 14.3461 4.38394 14.5392 4.47285 14.7037C4.56176 14.8683 4.71214 14.991 4.89118 15.0451C5.03381 15.0837 5.16989 15.1434 5.29493 15.2222C5.72468 15.4743 6.21333 15.6087 6.7116 15.6117C7.22911 15.6118 7.73742 15.475 8.18493 15.2151C8.46258 15.0619 8.77451 14.9816 9.0916 14.9816C9.40869 14.9816 9.72061 15.0619 9.99826 15.2151C10.4426 15.4691 10.9456 15.6028 11.4574 15.6028C11.9693 15.6028 12.4723 15.4691 12.9166 15.2151C13.1942 15.0619 13.5062 14.9816 13.8233 14.9816C14.1404 14.9816 14.4523 15.0619 14.7299 15.2151C15.169 15.4771 15.6707 15.6155 16.182 15.6155C16.6933 15.6155 17.1951 15.4771 17.6341 15.2151C17.7591 15.1363 17.8952 15.0766 18.0378 15.038C18.1321 15.0189 18.2215 14.9808 18.3006 14.9261C18.3797 14.8714 18.4468 14.8011 18.4978 14.7196C18.5488 14.6381 18.5827 14.547 18.5974 14.4519C18.6121 14.3569 18.6073 14.2599 18.5833 14.1667C18.5608 14.0709 18.5185 13.9808 18.4592 13.9021C18.3999 13.8235 18.3249 13.7581 18.2389 13.7101C18.1529 13.6622 18.0579 13.6326 17.9598 13.6234C17.8618 13.6142 17.7629 13.6256 17.6695 13.6567Z" fill="#52CDFF"/>
<path d="M5.56408 12.2401C5.63359 12.4148 5.76966 12.5547 5.94235 12.6291C6.11504 12.7035 6.31021 12.7063 6.48492 12.6367C6.65963 12.5672 6.79957 12.4312 6.87396 12.2585C6.94835 12.0858 6.95109 11.8906 6.88158 11.7159L6.08825 9.71841L10.7916 8.67716V12.0417C10.7916 12.2296 10.8662 12.4098 10.9991 12.5426C11.1319 12.6755 11.3121 12.7501 11.4999 12.7501C11.6878 12.7501 11.8679 12.6755 12.0008 12.5426C12.1336 12.4098 12.2083 12.2296 12.2083 12.0417V8.67716L16.9116 9.71841L16.1183 11.7159C16.0837 11.8024 16.0666 11.8949 16.0679 11.988C16.0692 12.0811 16.0888 12.1731 16.1256 12.2586C16.1625 12.3441 16.2158 12.4215 16.2826 12.4864C16.3494 12.5513 16.4284 12.6024 16.5149 12.6367C16.5984 12.6697 16.6873 12.6865 16.777 12.6863C16.9189 12.6865 17.0575 12.644 17.175 12.5644C17.2924 12.4849 17.3833 12.3719 17.4358 12.2401L18.5337 9.4705C18.5714 9.3747 18.5877 9.27185 18.5816 9.16909C18.5755 9.06633 18.547 8.96614 18.4983 8.8755C18.4509 8.78518 18.3846 8.70615 18.304 8.6438C18.2233 8.58146 18.1301 8.53726 18.0308 8.51425L15.7499 8.01133V4.95841C15.7499 4.77055 15.6753 4.59039 15.5425 4.45755C15.4096 4.32471 15.2294 4.25008 15.0416 4.25008H13.6249V2.12508C13.6249 1.93722 13.5503 1.75705 13.4175 1.62421C13.2846 1.49138 13.1044 1.41675 12.9166 1.41675H10.0833C9.89539 1.41675 9.71522 1.49138 9.58238 1.62421C9.44955 1.75705 9.37492 1.93722 9.37492 2.12508V4.25008H7.95825C7.77039 4.25008 7.59022 4.32471 7.45738 4.45755C7.32455 4.59039 7.24992 4.77055 7.24992 4.95841V8.01133L4.96908 8.50008C4.86975 8.5231 4.77656 8.56729 4.69587 8.62964C4.61519 8.69198 4.54892 8.77102 4.50158 8.86133C4.4528 8.95198 4.42436 9.05217 4.41824 9.15492C4.41213 9.25768 4.42848 9.36054 4.46617 9.45633L5.56408 12.2401ZM10.7916 2.83341H12.2083V4.25008H10.7916V2.83341ZM8.66658 5.66675H14.3333V7.69258L11.6558 7.08341H11.3441L8.66658 7.69258V5.66675Z" fill="white"/>
</g>
<defs>
<filter id="filter0_d" x="-1" y="0" width="25" height="25" filterUnits="userSpaceOnUse" color-interpolation-filters="sRGB">
<feFlood flood-opacity="0" result="BackgroundImageFix"/>
<feColorMatrix in="SourceAlpha" type="matrix" values="0 0 0 0 0 0 0 0 0 0 0 0 0 0 0 0 0 0 127 0"/>
<feOffset dy="4"/>
<feGaussianBlur stdDeviation="2"/>
<feColorMatrix type="matrix" values="0 0 0 0 0 0 0 0 0 0 0 0 0 0 0 0 0 0 0.25 0"/>
<feBlend mode="normal" in2="BackgroundImageFix" result="effect1_dropShadow"/>
<feBlend mode="normal" in="SourceGraphic" in2="effect1_dropShadow" result="shape"/>
</filter>
</defs>
</svg>
