<svg width="15" height="15" viewBox="0 0 15 15" fill="none" xmlns="http://www.w3.org/2000/svg">
<path d="M14.7969 2.33465C14.6888 2.03105 14.3003 1.94319 14.0722 2.17129L12.284 3.95952C11.6936 3.7683 11.2324 3.30699 11.0411 2.71666L12.8293 0.928431C13.0572 0.700589 12.9698 0.311907 12.666 0.203743C12.0484 -0.0160137 11.3826 -0.0589629 10.7406 0.0795822C10.0807 0.221995 9.47863 0.55056 8.99942 1.02983C8.09605 1.9332 7.76951 3.23126 8.08911 4.42581L4.42752 8.08664C3.23929 7.76797 1.93953 8.08303 1.03145 8.99112C-0.551906 10.5745 -0.289581 13.2407 1.67938 14.4778C2.78997 15.1756 4.25182 15.174 5.36171 14.4735C6.70035 13.6285 7.31324 12.0537 6.91333 10.5666L10.5746 6.91142C11.7659 7.23023 13.0649 6.90708 13.9708 6.00119C14.45 5.52195 14.7786 4.91987 14.921 4.26002C15.0596 3.61801 15.0166 2.95223 14.7969 2.33465ZM13.3494 5.37981C12.6332 6.09594 11.5536 6.3391 10.5989 5.99935C10.4392 5.94251 10.2611 5.98259 10.1411 6.10238L6.10444 10.1323C5.98427 10.2523 5.94402 10.4307 6.00091 10.5906C6.41842 11.7638 5.96265 13.0549 4.89258 13.7303C4.07177 14.2485 2.96835 14.2498 2.14687 13.7336C0.656534 12.7973 0.468125 10.7973 1.65283 9.61257C2.36484 8.90059 3.4439 8.65743 4.40332 8.99888C4.56313 9.05578 4.74138 9.01558 4.86132 8.89564L8.898 4.85981C9.01797 4.73984 9.05816 4.56157 9.0013 4.40176C8.66151 3.44703 8.90471 2.36741 9.62084 1.65127C10.1559 1.11622 10.8938 0.845111 11.6309 0.884046L10.2423 2.27272C10.1384 2.37661 10.0933 2.52552 10.1221 2.66961C10.3457 3.78784 11.2128 4.65491 12.331 4.87859C12.4752 4.90736 12.6241 4.8623 12.7279 4.75839L14.1166 3.36971C14.1554 4.10682 13.8844 4.84476 13.3494 5.37981Z" fill="white"/>
</svg>
