<svg width="47" height="31" viewBox="0 0 47 31" fill="none" xmlns="http://www.w3.org/2000/svg">
<path d="M7.8723 22.1672H7.63196C7.12253 22.1674 6.61435 22.1168 6.11494 22.0162C4.1935 21.6288 2.49874 20.5077 1.39057 18.8909C1.11865 18.4938 0.886102 18.0711 0.696234 17.6289C0.305152 16.7147 0.103516 15.7307 0.103516 14.7364C0.103516 13.7421 0.305152 12.7581 0.696234 11.844C0.885995 11.4017 1.11844 10.9789 1.39026 10.5818C2.49885 8.96545 4.19343 7.8445 6.11463 7.45661C6.61404 7.35607 7.12222 7.30549 7.63165 7.30561C8.46609 7.30531 9.29489 7.44247 10.0847 7.71158C10.2789 6.63522 10.6634 5.60207 11.2201 4.66059C12.3303 2.78508 14.0532 1.34966 16.0983 0.596224C18.0373 -0.124075 20.1581 -0.193661 22.1401 0.39798C24.1221 0.989622 25.8577 2.21034 27.0846 3.87566C27.6642 4.66305 28.1157 5.53712 28.4223 6.4655C29.9155 5.80755 31.6009 5.73226 33.1468 6.25445C34.6927 6.77664 35.9872 7.85849 36.7756 9.28713C37.7657 8.7755 38.8642 8.50919 39.9787 8.5106C40.4468 8.51047 40.9137 8.55693 41.3726 8.6493C43.1383 9.00524 44.6957 10.0355 45.714 11.5212C45.9638 11.8861 46.1774 12.2745 46.3517 12.6809C46.7111 13.5209 46.8964 14.4251 46.8964 15.3388C46.8964 16.2525 46.7111 17.1567 46.3517 17.9968C46.1774 18.4032 45.9638 18.7916 45.714 19.1565C44.6953 20.6419 43.138 21.672 41.3725 22.0285C40.9136 22.1208 40.4466 22.1673 39.9785 22.1672H39.6516C41.1571 21.9519 42.5372 21.2086 43.5452 20.0698C44.5588 18.926 45.1187 17.4508 45.1196 15.9226C45.1196 12.4435 42.2523 9.61262 38.7279 9.61262C37.698 9.6113 36.6829 9.85738 35.768 10.3301C35.0364 9.01306 33.84 8.01605 32.4125 7.53391C30.9851 7.05176 29.4292 7.1191 28.0488 7.72279C26.871 4.1539 23.5248 1.75607 19.7218 1.75607C15.4731 1.75607 11.8486 4.7497 11.1033 8.87431C10.3734 8.62564 9.60756 8.49892 8.83648 8.49924C5.00102 8.49924 1.88067 11.5797 1.88067 15.3659C1.88067 18.7759 4.4569 21.6999 7.87261 22.1675L7.8723 22.1672Z" fill="white"/>
<path d="M5.52148 22.7233C5.52148 21.8638 5.65172 21.1214 5.9122 20.4963C6.17267 19.8581 6.53083 19.3306 6.98666 18.9139C7.45552 18.4971 7.99601 18.1911 8.60813 17.9957C9.23327 17.7873 9.904 17.6831 10.6203 17.6831C10.8808 17.6831 11.1347 17.7092 11.3822 17.7613C11.6297 17.8003 11.8315 17.8524 11.9878 17.9176V14.7528C12.118 14.7137 12.3264 14.6746 12.6129 14.6356C12.8995 14.5835 13.1925 14.5574 13.4921 14.5574C13.7786 14.5574 14.0325 14.5769 14.254 14.616C14.4884 14.6551 14.6837 14.7332 14.84 14.8504C14.9963 14.9677 15.1135 15.1305 15.1917 15.3388C15.2698 15.5342 15.3089 15.7947 15.3089 16.1203V25.3802C15.3089 25.9923 15.0224 26.4807 14.4493 26.8454C14.0716 27.0928 13.5832 27.3077 12.9841 27.4901C12.385 27.6854 11.6948 27.7831 10.9133 27.7831C10.0668 27.7831 9.3049 27.6659 8.62766 27.4315C7.96345 27.197 7.39691 26.8584 6.92806 26.4156C6.47222 25.9728 6.12058 25.4453 5.87313 24.8332C5.6387 24.2081 5.52148 23.5048 5.52148 22.7233ZM11.0696 20.2814C10.3663 20.2814 9.82585 20.4832 9.44816 20.887C9.07047 21.2907 8.88163 21.9028 8.88163 22.7233C8.88163 23.5308 9.05745 24.1429 9.40909 24.5597C9.76073 24.9634 10.2687 25.1653 10.9329 25.1653C11.1673 25.1653 11.3757 25.1327 11.558 25.0676C11.7534 24.9895 11.9032 24.9048 12.0073 24.8137V20.5158C11.7469 20.3595 11.4343 20.2814 11.0696 20.2814Z" fill="white"/>
<path d="M17.3003 15.3388C17.3003 14.8439 17.4631 14.4272 17.7887 14.0886C18.1273 13.7499 18.5701 13.5806 19.1171 13.5806C19.6641 13.5806 20.1004 13.7499 20.426 14.0886C20.7646 14.4272 20.9339 14.8439 20.9339 15.3388C20.9339 15.8337 20.7646 16.2505 20.426 16.5891C20.1004 16.9277 19.6641 17.0971 19.1171 17.0971C18.5701 17.0971 18.1273 16.9277 17.7887 16.5891C17.4631 16.2505 17.3003 15.8337 17.3003 15.3388ZM20.7777 27.451C20.6344 27.477 20.4195 27.5096 20.133 27.5487C19.8595 27.6008 19.5795 27.6268 19.2929 27.6268C19.0064 27.6268 18.7459 27.6073 18.5115 27.5682C18.2901 27.5291 18.1013 27.451 17.945 27.3338C17.7887 27.2166 17.665 27.0603 17.5738 26.8649C17.4957 26.6565 17.4566 26.3895 17.4566 26.064V18.1129C17.5998 18.0869 17.8082 18.0543 18.0817 18.0152C18.3683 17.9631 18.6548 17.9371 18.9413 17.9371C19.2278 17.9371 19.4818 17.9566 19.7032 17.9957C19.9376 18.0348 20.133 18.1129 20.2893 18.2301C20.4455 18.3473 20.5628 18.5101 20.6409 18.7185C20.7321 18.9139 20.7777 19.1744 20.7777 19.4999V27.451Z" fill="white"/>
<path d="M22.9115 15.3388C22.9115 14.8439 23.0743 14.4272 23.3999 14.0886C23.7385 13.7499 24.1813 13.5806 24.7283 13.5806C25.2753 13.5806 25.7116 13.7499 26.0372 14.0886C26.3758 14.4272 26.5451 14.8439 26.5451 15.3388C26.5451 15.8337 26.3758 16.2505 26.0372 16.5891C25.7116 16.9277 25.2753 17.0971 24.7283 17.0971C24.1813 17.0971 23.7385 16.9277 23.3999 16.5891C23.0743 16.2505 22.9115 15.8337 22.9115 15.3388ZM22.2473 28.799C22.5338 28.6166 22.7422 28.3627 22.8724 28.0371C23.0026 27.7245 23.0678 27.3728 23.0678 26.9821V18.1129C23.211 18.0869 23.4194 18.0543 23.6929 18.0152C23.9794 17.9631 24.266 17.9371 24.5525 17.9371C24.839 17.9371 25.093 17.9566 25.3144 17.9957C25.5488 18.0348 25.7442 18.1129 25.9004 18.2301C26.0567 18.3473 26.1739 18.5101 26.2521 18.7185C26.3433 18.9139 26.3888 19.1744 26.3888 19.4999V27.2947C26.3888 27.8417 26.3237 28.3366 26.1935 28.7794C26.0632 29.2222 25.8744 29.5999 25.6269 29.9125C25.3925 30.2381 25.0995 30.4855 24.7478 30.6548C24.4092 30.8372 24.025 30.9283 23.5952 30.9283C23.0222 30.9283 22.5729 30.7525 22.2473 30.4009C21.9217 30.0623 21.7524 29.6325 21.7393 29.1115L22.2473 28.799Z" fill="white"/>
<path d="M31.8219 24.2081C31.8219 24.5467 31.9261 24.7876 32.1345 24.9309C32.3559 25.0741 32.6619 25.1458 33.0526 25.1458C33.248 25.1458 33.4499 25.1327 33.6583 25.1067C33.8666 25.0676 34.049 25.022 34.2053 24.97C34.3225 25.1132 34.4201 25.276 34.4983 25.4583C34.5895 25.6277 34.635 25.836 34.635 26.0835C34.635 26.5784 34.4462 26.9821 34.0685 27.2947C33.7038 27.6073 33.0526 27.7636 32.1149 27.7636C30.9688 27.7636 30.0832 27.5031 29.4581 26.9821C28.846 26.4612 28.5399 25.6146 28.5399 24.4425V16.0812C28.6832 16.0421 28.885 16.0031 29.1455 15.964C29.419 15.9119 29.7055 15.8858 30.0051 15.8858C30.5781 15.8858 31.0209 15.99 31.3335 16.1984C31.6591 16.3938 31.8219 16.817 31.8219 17.4682V18.7185H34.3811C34.4592 18.8618 34.5309 19.0441 34.596 19.2655C34.6741 19.4739 34.7132 19.7083 34.7132 19.9688C34.7132 20.4246 34.609 20.7567 34.4006 20.9651C34.2053 21.1605 33.9383 21.2582 33.5997 21.2582H31.8219V24.2081Z" fill="white"/>
<path d="M40.3862 25.3607C40.6076 25.3607 40.8485 25.3411 41.109 25.3021C41.3825 25.25 41.5844 25.1848 41.7146 25.1067V23.5438L40.308 23.6611C39.9434 23.6871 39.6438 23.7652 39.4094 23.8955C39.175 24.0257 39.0577 24.2211 39.0577 24.4816C39.0577 24.742 39.1554 24.9569 39.3508 25.1262C39.5592 25.2825 39.9043 25.3607 40.3862 25.3607ZM40.2299 17.6831C40.9332 17.6831 41.5713 17.7548 42.1444 17.898C42.7305 18.0413 43.2254 18.2627 43.6291 18.5622C44.0459 18.8488 44.3649 19.2199 44.5864 19.6758C44.8078 20.1186 44.9185 20.646 44.9185 21.2582V25.6342C44.9185 25.9728 44.8208 26.2528 44.6254 26.4742C44.4431 26.6826 44.2217 26.8649 43.9612 27.0212C43.1147 27.5291 41.923 27.7831 40.3862 27.7831C39.6959 27.7831 39.0708 27.718 38.5107 27.5877C37.9637 27.4575 37.4884 27.2621 37.0846 27.0017C36.6939 26.7412 36.3879 26.4091 36.1665 26.0053C35.9581 25.6016 35.8539 25.1327 35.8539 24.5988C35.8539 23.7001 36.1209 23.0099 36.6549 22.528C37.1888 22.0461 38.0158 21.7466 39.1359 21.6293L41.6951 21.3558V21.2191C41.6951 20.8414 41.5258 20.5744 41.1871 20.4181C40.8615 20.2488 40.3862 20.1642 39.761 20.1642C39.2661 20.1642 38.7842 20.2163 38.3154 20.3205C37.8465 20.4246 37.4233 20.5549 37.0456 20.7112C36.8763 20.594 36.733 20.4181 36.6158 20.1837C36.4986 19.9362 36.44 19.6823 36.44 19.4218C36.44 19.0832 36.5181 18.8162 36.6744 18.6208C36.8437 18.4125 37.0977 18.2366 37.4363 18.0934C37.814 17.9501 38.2568 17.8459 38.7647 17.7808C39.2857 17.7157 39.7741 17.6831 40.2299 17.6831Z" fill="white"/>
</svg>
