<svg width="12" height="12" viewBox="0 0 12 12" fill="none" xmlns="http://www.w3.org/2000/svg">
<path opacity="0.7" d="M10.3973 6.56551C10.4191 6.38426 10.4336 6.19576 10.4336 6.00001C10.4336 5.80426 10.4191 5.61576 10.3901 5.43451L11.6153 4.47751C11.7241 4.39051 11.7531 4.23101 11.6878 4.10776L10.5278 2.09951C10.4553 1.96901 10.3031 1.92551 10.1726 1.96901L8.72983 2.54901C8.42533 2.31701 8.10633 2.12851 7.75108 1.98351L7.53358 0.446512C7.51183 0.301512 7.38858 0.200012 7.24358 0.200012H4.92358C4.77858 0.200012 4.66258 0.301512 4.64083 0.446512L4.42333 1.98351C4.06808 2.12851 3.74183 2.32426 3.44458 2.54901L2.00183 1.96901C1.87133 1.91826 1.71908 1.96901 1.64658 2.09951L0.486581 4.10776C0.414081 4.23826 0.443081 4.39051 0.559081 4.47751L1.78433 5.43451C1.75533 5.61576 1.73358 5.81151 1.73358 6.00001C1.73358 6.18851 1.74808 6.38426 1.77708 6.56551L0.551831 7.52251C0.443081 7.60951 0.414081 7.76901 0.479331 7.89226L1.63933 9.90051C1.71183 10.031 1.86408 10.0745 1.99458 10.031L3.43733 9.45101C3.74183 9.68301 4.06083 9.87151 4.41608 10.0165L4.63358 11.5535C4.66258 11.6985 4.77858 11.8 4.92358 11.8H7.24358C7.38858 11.8 7.51183 11.6985 7.52633 11.5535L7.74383 10.0165C8.09908 9.87151 8.42533 9.67576 8.72258 9.45101L10.1653 10.031C10.2958 10.0818 10.4481 10.031 10.5206 9.90051L11.6806 7.89226C11.7531 7.76176 11.7241 7.60951 11.6081 7.52251L10.3973 6.56551V6.56551ZM6.08358 8.17501C4.88733 8.17501 3.90858 7.19626 3.90858 6.00001C3.90858 4.80376 4.88733 3.82501 6.08358 3.82501C7.27983 3.82501 8.25858 4.80376 8.25858 6.00001C8.25858 7.19626 7.27983 8.17501 6.08358 8.17501Z" fill="#0B0F32"/>
</svg>
