<svg width="30" height="22" viewBox="0 0 30 22" fill="none" xmlns="http://www.w3.org/2000/svg">
<path d="M5.69355 16.908L5.61361 16.988C5.2481 17.3534 5.2481 17.9482 5.6135 18.3137L5.98456 18.6848C6.14074 18.8412 6.3358 18.9273 6.53369 18.9273C6.79508 18.9273 7.03708 18.7762 7.18073 18.5232L7.63685 17.7202L9.88282 18.6588C10.0777 18.7403 10.3068 18.7834 10.5455 18.7834C11.0693 18.7834 11.5963 18.5815 11.9212 18.2567L18.0383 12.1394C18.5258 11.6518 18.7062 10.7375 18.4403 10.1011L17.5031 7.85843L18.2959 7.40797C18.5182 7.28163 18.6631 7.07917 18.6937 6.85252C18.7243 6.62588 18.6383 6.39227 18.4576 6.21158L18.0866 5.84052C17.9101 5.66398 17.6748 5.56683 17.4237 5.56683C17.1727 5.56683 16.9373 5.66398 16.7609 5.84052L16.6897 5.91175L16.5381 5.54919C16.2912 4.95823 15.7217 4.10873 15.2683 3.65533L12.1055 0.492443C11.929 0.315898 11.6937 0.21875 11.4426 0.21875C11.1916 0.21875 10.9562 0.315898 10.7798 0.492334L9.91386 1.35829C9.73731 1.53472 9.64016 1.77008 9.64016 2.02112C9.64016 2.27216 9.73731 2.50752 9.91386 2.68406L10.7039 3.47388L3.25546 10.9223L2.46553 10.1324C2.2891 9.95584 2.05374 9.85869 1.8027 9.85869C1.55166 9.85869 1.3163 9.95584 1.13986 10.1324L0.274129 10.9981C-0.0913765 11.3635 -0.0913765 11.9583 0.274129 12.3238L3.43724 15.4868C3.88998 15.9396 4.73949 16.5092 5.33088 16.7564L5.69355 16.908ZM16.0079 7.31355L17.4275 10.7109C17.5865 11.0915 17.4781 11.6416 17.1864 11.9332L11.7147 17.4049C11.423 17.6966 10.8729 17.8051 10.4924 17.646L7.09513 16.2263C6.71459 16.0673 6.64184 15.6984 6.9335 15.4067L15.1884 7.15181C15.4801 6.86026 15.8489 6.93301 16.0079 7.31355ZM10.7543 5.94431L12.6325 4.06603C12.7783 3.9202 13.017 3.9202 13.1628 4.06603L14.0642 4.96738C14.2101 5.11321 14.2101 5.35184 14.0642 5.49767L12.186 7.37595C12.0401 7.52178 11.8015 7.52178 11.6557 7.37595L10.7543 6.4746C10.6086 6.32877 10.6086 6.09015 10.7543 5.94431ZM4.76683 14.265L3.86548 13.3637C3.71975 13.2178 3.71975 12.9792 3.86548 12.8334L5.74365 10.9552C5.88948 10.8094 6.12811 10.8094 6.27394 10.9552L7.1754 11.8564C7.32123 12.0023 7.32123 12.2409 7.1754 12.3867L5.29711 14.265C5.15139 14.4107 4.91266 14.4107 4.76683 14.265Z" fill="#1F3BB3"/>
<path d="M20.5074 11.5462C20.546 11.5462 20.5856 11.5417 20.6249 11.5323L23.2872 10.8992C23.5592 10.8345 23.7272 10.5616 23.6625 10.2897C23.5978 10.0177 23.3252 9.84933 23.053 9.91435L20.3906 10.5473C20.1187 10.612 19.9506 10.885 20.0153 11.1569C20.0706 11.3897 20.2782 11.5462 20.5074 11.5462Z" fill="#52C4FF"/>
<path d="M19.9941 13.0609L22.3916 14.0405C22.4543 14.0661 22.5192 14.0783 22.5829 14.0783C22.7824 14.0783 22.9715 13.9596 23.0516 13.7635C23.1575 13.5047 23.0333 13.2092 22.7746 13.1035L20.377 12.1238C20.118 12.0177 19.8226 12.1421 19.717 12.4009C19.6111 12.6597 19.7353 12.9551 19.9941 13.0609Z" fill="#52C4FF"/>
<path d="M20.224 16.2795C20.3198 16.4345 20.4854 16.5198 20.6552 16.5198C20.7459 16.5198 20.8378 16.4952 20.9207 16.4442C21.1586 16.2972 21.2322 15.9853 21.0854 15.7476L19.761 13.6036C19.6141 13.3657 19.3022 13.292 19.0644 13.4389C18.8266 13.5858 18.753 13.8977 18.8998 14.1355L20.224 16.2795Z" fill="#52C4FF"/>
<path d="M29.0123 21H4.98767C4.44224 21 4 21.2238 4 21.5C4 21.7761 4.44213 22 4.98767 22H29.0123C29.5578 22 30 21.7762 30 21.5C30 21.2238 29.5579 21 29.0123 21Z" fill="#1F3BB3"/>
</svg>
