<svg width="11" height="14" viewBox="0 0 11 14" fill="none" xmlns="http://www.w3.org/2000/svg">
<path d="M9.96875 12.6C9.96875 12.7925 9.81475 12.95 9.625 12.95H1.375C1.18525 12.95 1.03125 12.7925 1.03125 12.6V1.4C1.03125 1.2075 1.18525 1.05 1.375 1.05H5.5V4.2C5.5 4.9728 6.116 5.6 6.875 5.6H9.96875V12.6ZM6.53125 1.8347L9.19738 4.55H6.875C6.68525 4.55 6.53125 4.3925 6.53125 4.2V1.8347ZM10.5971 4.4898L6.58969 0.4102C6.57181 0.392 6.54981 0.378 6.53125 0.3612C6.48244 0.3164 6.43431 0.2723 6.38069 0.2352C6.35319 0.2163 6.32156 0.2037 6.29269 0.1876C6.24388 0.1596 6.19575 0.1288 6.14419 0.1064C6.00875 0.049 5.863 0.0203 5.71519 0.00979996C5.68287 0.00769996 5.65125 0 5.61825 0H5.61756H5.5H1.375C0.616 0 0 0.6272 0 1.4V12.6C0 13.3728 0.616 14 1.375 14H9.625C10.384 14 11 13.3728 11 12.6V5.6V5.4796C11 5.1086 10.8549 4.7523 10.5971 4.4898Z" fill="#0B0F32"/>
</svg>
