<svg width="16" height="22" viewBox="0 0 16 22" fill="none" xmlns="http://www.w3.org/2000/svg">
<path fill-rule="evenodd" clip-rule="evenodd" d="M12.8168 11.3465C12.695 11.7831 12.5155 12.1956 12.2869 12.5753L13.0741 14.4927C13.203 14.8067 13.0306 15.0638 12.6911 15.0638L3.08028 15.0638C2.74078 15.0638 2.56846 14.8067 2.69741 14.4927L3.58085 12.3409C3.37604 11.9551 3.22028 11.5392 3.1219 11.1016C3.03002 11.2106 2.95526 11.3295 2.90416 11.454L2.14419 13.3051L1.42048 13.1058C1.21753 13.0499 1.01529 13.0834 0.86554 13.1975C0.71579 13.3116 0.629883 13.4977 0.629883 13.7081V14.1401C0.62982 14.3456 0.710274 14.5391 0.85641 14.6853C1.00255 14.8314 1.19611 14.9119 1.40159 14.9118L1.48451 14.9118L1.36171 15.2111C1.16143 15.6988 0.998428 16.5249 0.998428 17.0527L0.998366 20.7351C0.998303 20.9405 1.07876 21.1341 1.22489 21.2802C1.37103 21.4264 1.56459 21.5068 1.77001 21.5068H2.77819C2.98367 21.5069 3.17723 21.4264 3.32336 21.2803C3.4695 21.1342 3.54995 20.9406 3.54995 20.7351L3.54983 19.8154L12.2216 19.8154L12.2216 20.7351C12.2216 20.9405 12.302 21.1341 12.4482 21.2802C12.5943 21.4264 12.7879 21.5068 12.9933 21.5068H14.0013C14.4268 21.5068 14.773 21.1606 14.773 20.7351L14.7729 17.0525C14.773 16.5253 14.61 15.6992 14.4096 15.2111L14.2868 14.9117L14.3799 14.9117C14.8054 14.9117 15.1516 14.5655 15.1517 14.14L15.1517 13.708C15.1519 13.526 15.0884 13.3624 14.9732 13.2472C14.821 13.095 14.5922 13.0421 14.3613 13.1057L13.6284 13.3077L12.8673 11.4538C12.8525 11.4179 12.8357 11.382 12.8168 11.3465ZM2.77185 18.348L4.95857 18.3479C5.12829 18.3479 5.2672 18.209 5.26726 18.0392V16.9899C5.26726 16.8201 5.12835 16.6812 4.95857 16.6812L2.77178 16.6812C2.602 16.6812 2.46309 16.8201 2.46309 16.9899L2.46315 18.0393C2.46315 18.2091 2.60206 18.348 2.77185 18.348ZM13.2877 18.0391L13.2877 16.9897C13.2876 16.82 13.1487 16.681 12.979 16.681L10.7922 16.681C10.6224 16.681 10.4835 16.8199 10.4835 16.9897L10.4837 18.0391C10.4837 18.2089 10.6226 18.3478 10.7924 18.3478L12.979 18.3478C13.1487 18.3478 13.2876 18.2088 13.2877 18.0391Z" fill="#1F3BB3"/>
<path d="M9.12497 8.31111L8.93192 8.22935V4.16432L9.09247 4.07414C9.78715 3.68376 10.219 2.95949 10.219 2.18436C10.219 0.980153 9.20863 0 7.96664 0C6.72464 0 5.71432 0.980153 5.71432 2.18436C5.71432 2.95949 6.14612 3.68376 6.8408 4.07414L7.00136 4.16432V8.22935L6.8083 8.31111C5.75293 8.75859 5.0708 9.7687 5.0708 10.8843C5.0708 12.433 6.37007 13.6927 7.96664 13.6927C9.56321 13.6927 10.8625 12.433 10.8625 10.8843C10.8625 9.7687 10.1803 8.75859 9.12497 8.31111ZM7.96664 1.24821C8.49883 1.24821 8.93192 1.66823 8.93192 2.18436C8.93192 2.70049 8.49883 3.12051 7.96664 3.12051C7.43445 3.12051 7.00136 2.70049 7.00136 2.18436C7.00136 1.66823 7.43445 1.24821 7.96664 1.24821ZM8.73178 12.1325H7.20181L6.42959 10.8843L7.20181 9.63608H8.73178L9.504 10.8843L8.73178 12.1325Z" fill="#52C4FF"/>
</svg>
