<svg width="16" height="14" viewBox="0 0 16 14" fill="none" xmlns="http://www.w3.org/2000/svg">
<path d="M13.3307 7.86769L14.2405 10.7925C14.2405 11.4843 13.712 11.7764 13.1487 11.7764H10.7527C10.6487 13.0164 9.69555 14.0003 8.46073 14.0003C7.22592 14.0003 6.2034 13.0164 6.13408 11.7764H-2.17168C-2.24101 13.0164 -3.26352 14.0003 -4.46368 14.0003C-5.66383 14.0003 -6.68634 13.0164 -6.75567 11.7764H-7.98182C-8.86135 11.7764 -9 11.3765 -9 10.7925V7.98001C-9 7.50378 -8.96534 7.13987 -8.71838 6.63219L-6.32673 1.70365C-6.04511 1.11959 -5.30855 0.607422 -4.63698 0.607422L4.58727 0.643364C5.21988 0.643364 5.85241 1.04322 6.24235 1.73959L8.46502 5.35625L11.9572 6.34016C13.0837 6.51991 13.296 7.28368 13.3307 7.86769ZM-3.18987 11.6282C-3.18987 10.9363 -3.75311 10.3522 -4.42035 10.3522C-5.12224 10.3522 -5.65083 10.9363 -5.65083 11.6282C-5.65083 12.32 -5.08758 12.904 -4.42035 12.904C-3.75311 12.9041 -3.18987 12.3245 -3.18987 11.6282ZM-0.724566 1.99123H-4.1084C-4.63698 2.02717 -4.88395 2.24732 -5.16557 2.86731L-6.25741 5.3518H-0.728899V1.99123H-0.724566ZM6.60201 5.34731L5.15922 2.86282C4.8776 2.38659 4.45733 1.98674 3.85942 1.98674H0.757214V5.34731H6.60201ZM9.69555 11.6282C9.69555 10.9363 9.1323 10.3522 8.46507 10.3522C7.79787 10.3522 7.23462 10.9363 7.23462 11.6282C7.23462 12.32 7.79787 12.904 8.46507 12.904C9.17129 12.9086 9.69555 12.3245 9.69555 11.6282Z" fill="#1F3BB3"/>
<path d="M12.0854 1.55859L8.49888 5.35511C8.27749 5.42414 7.82142 5.65883 7.76829 6.04538C7.70187 6.52858 10.4107 8.04718 11.4069 8.87551C12.204 9.53818 11.2587 10.8083 11.0816 11.6366L12.7496 11.7796L14.875 11.9818L15.9377 10.2561C15.6941 9.81889 15.1008 8.93073 14.6757 8.87551C13.613 8.82029 13.126 7.93214 13.0153 7.49496C13.0153 7.28788 13.4802 7.28788 14.4101 7.49496C15.3399 7.70204 16.5354 8.39232 15.7384 7.70204C15.1008 7.14982 14.5872 6.04538 14.4101 5.56219L14.078 6.39052L13.2145 5.14803L12.7496 6.04538L12.2847 4.80289L9.89366 5.56219L12.0854 2.52498C12.5725 3.05419 13.6529 4.25067 14.078 4.80289C14.078 3.64323 12.7496 2.15683 12.0854 1.55859Z" fill="#1F3BB3"/>
</svg>
