<svg width="15" height="15" viewBox="0 0 15 15" fill="none" xmlns="http://www.w3.org/2000/svg">
<path d="M10.3584 5.16807L9.18425 5.125L8.92969 12.0767L10.1038 12.1196L10.3584 5.16807Z" fill="#212121"/>
<path d="M8.08508 5.14844H6.91016V12.1002H8.08508V5.14844Z" fill="#212121"/>
<path d="M6.06935 12.0806L5.81478 5.12891L4.64062 5.172L4.89521 12.1237L6.06935 12.0806Z" fill="#212121"/>
<path d="M0.507812 2.25V3.42492H1.7321L2.70335 14.4621C2.72998 14.7654 2.98398 14.998 3.28847 14.998H11.6891C11.9936 14.998 12.2477 14.7652 12.2742 14.4619L13.2455 3.42492H14.4895V2.25H0.507812ZM11.151 13.8231H3.82642L2.91153 3.42492H12.066L11.151 13.8231Z" fill="#212121"/>
<path d="M9.41877 0H5.58066C5.04078 0 4.60156 0.439219 4.60156 0.979102V2.83942H5.77648V1.17492H9.22295V2.83942H10.3979V0.979102C10.3979 0.439219 9.95865 0 9.41877 0Z" fill="#212121"/>
</svg>
