<svg width="20" height="16" viewBox="0 0 20 16" fill="none" xmlns="http://www.w3.org/2000/svg">
<path fill-rule="evenodd" clip-rule="evenodd" d="M7.40066 4.33789L4.32469 4.33794C3.75708 4.33801 3.11984 4.76526 2.90416 5.29046L2.14419 7.14155L1.42048 6.94228C1.21753 6.88642 1.01529 6.9199 0.86554 7.03402C0.71579 7.14814 0.629883 7.33422 0.629883 7.54458V7.97658C0.62982 8.18206 0.710274 8.37562 0.85641 8.52176C1.00255 8.66789 1.19611 8.74835 1.40159 8.74829H1.48451L1.36171 9.04759C1.16143 9.53533 0.998428 10.3614 0.998428 10.8892L0.998366 14.5716C0.998303 14.777 1.07876 14.9706 1.22489 15.1167C1.37103 15.2629 1.56459 15.3433 1.77001 15.3433H2.77819C2.98367 15.3434 3.17723 15.2629 3.32336 15.1168C3.4695 14.9707 3.54995 14.7771 3.54995 14.5716L3.54983 13.6519L12.2216 13.6519L12.2216 14.5716C12.2216 14.777 12.302 14.9706 12.4482 15.1167C12.5943 15.2629 12.7879 15.3433 12.9933 15.3433H14.0013C14.4268 15.3433 14.773 14.9971 14.773 14.5716L14.7729 10.889C14.773 10.3618 14.61 9.53571 14.4096 9.0476L14.3852 8.98806C14.2577 8.99497 14.1294 8.99847 14.0002 8.99847C13.5856 8.99847 13.1794 8.96243 12.7847 8.89331C12.7551 8.89792 12.7239 8.90032 12.6911 8.90032L3.08028 8.90032C2.74078 8.90026 2.56846 8.64323 2.69741 8.32915L3.84869 5.52504C3.97764 5.21096 4.36102 4.95387 4.70059 4.95387L7.65283 4.95387C7.55938 4.75352 7.47514 4.54801 7.40066 4.33789ZM2.77185 12.1845L4.95857 12.1844C5.12829 12.1844 5.2672 12.0455 5.26726 11.8757V10.8263C5.26726 10.6566 5.12835 10.5176 4.95857 10.5176L2.77178 10.5176C2.602 10.5176 2.46309 10.6566 2.46309 10.8263L2.46315 11.8758C2.46315 12.0456 2.60206 12.1845 2.77185 12.1845ZM13.2877 11.8756L13.2877 10.8262C13.2876 10.6565 13.1487 10.5175 12.979 10.5175L10.7922 10.5175C10.6224 10.5175 10.4835 10.6564 10.4835 10.8262L10.4837 11.8756C10.4837 12.0454 10.6226 12.1843 10.7924 12.1843L12.979 12.1843C13.1487 12.1842 13.2876 12.0453 13.2877 11.8756Z" fill="#1F3BB3"/>
<path d="M8.28033 0.916919L12.2414 5.44949L13.422 4.09052C13.7149 3.7534 14.1898 3.7534 14.4827 4.09052L18.4994 8.71394V8.31611C18.4994 7.83929 18.8352 7.4528 19.2495 7.4528C19.6637 7.4528 19.9995 7.83929 19.9995 8.31611C19.9995 11.0558 20.0031 10.8233 19.9912 10.92C19.9549 11.2145 19.7867 11.4764 19.5362 11.5958C19.3507 11.6842 19.4082 11.6614 17.0931 11.6614C16.6789 11.6614 16.3431 11.275 16.3431 10.7981C16.3431 10.3213 16.6789 9.93482 17.0931 9.93482H17.4388L13.9524 5.92193L12.7717 7.28089C12.4788 7.61802 12.0039 7.61802 11.711 7.28089L7.2197 2.13786C6.92677 1.80073 6.92677 1.2541 7.2197 0.916972C7.51259 0.579741 7.98745 0.579796 8.28033 0.916919Z" fill="#52C4FF"/>
</svg>
