<svg width="21" height="26" viewBox="0 0 21 26" fill="none" xmlns="http://www.w3.org/2000/svg">
<rect width="21" height="26" rx="2" fill="#EFF1F4"/>
<path d="M3.50774 15.2717C3.26491 15.2717 3 15.1384 3 14.8155V10.6386C3 10.3737 3.26491 10.1824 3.50774 10.1824H5.19193C8.55295 10.1824 8.47845 15.2717 5.25724 15.2717H3.50774V15.2717ZM3.97133 11.0792V14.374H5.19193C7.17782 14.374 7.2652 11.0792 5.19193 11.0792H3.97133Z" fill="#50BEE8"/>
<path d="M11.2928 15.3469C9.93238 15.4058 8.51953 14.5007 8.51953 12.6988C8.51953 10.8895 9.93146 10 11.2928 10C12.5796 10.0653 13.9253 10.9557 13.9253 12.6988C13.9253 14.4427 12.5796 15.3469 11.2928 15.3469ZM11.2119 10.9566C10.3877 10.9566 9.49086 11.5379 9.49086 12.6997C9.49086 13.855 10.3886 14.4436 11.2119 14.4436C12.0581 14.4436 12.9623 13.855 12.9623 12.6997C12.9623 11.537 12.0581 10.9566 11.2119 10.9566Z" fill="#50BEE8"/>
<path d="M14.7891 12.6912C14.7891 11.2719 15.6795 10.0513 17.371 10.0513C18.0112 10.0513 18.5189 10.2426 19.0552 10.7062C19.2539 10.8892 19.276 11.213 19.0773 11.419C18.8786 11.5947 18.5769 11.5736 18.4003 11.397C18.0995 11.0805 17.7904 10.9932 17.371 10.9932C16.2387 10.9932 15.6951 11.7952 15.6951 12.6921C15.6951 13.6045 16.2313 14.4425 17.371 14.4425C17.7904 14.4425 18.1805 14.2723 18.5189 13.9715C18.7461 13.7949 19.0626 13.8823 19.195 14.0598C19.3128 14.2217 19.3707 14.494 19.1141 14.7506C18.599 15.2299 17.9818 15.3255 17.3701 15.3255C15.5911 15.3255 14.7891 14.1104 14.7891 12.6912Z" fill="#50BEE8"/>
</svg>
