<svg width="17" height="16" viewBox="0 0 17 16" fill="none" xmlns="http://www.w3.org/2000/svg">
<path d="M5.84234 5.4962L7.96682 1.18296C8.18446 0.741097 8.81447 0.741097 9.03211 1.18296L11.1566 5.4962L15.9152 6.18384C16.4026 6.25426 16.5973 6.85312 16.2447 7.19674L12.8029 10.5504L13.6154 15.2891C13.6986 15.7743 13.1891 16.1442 12.7535 15.9147L8.49946 13.674L4.24546 15.9147C3.80967 16.1443 3.29998 15.774 3.38363 15.2886L4.20014 10.5504L0.754511 7.19699C0.401529 6.85346 0.596213 6.25428 1.0837 6.18384L5.84234 5.4962ZM8.49946 2.78907L6.76943 6.30147C6.68294 6.47708 6.51545 6.59877 6.32171 6.62676L2.44661 7.18673L5.25249 9.91747C5.39277 10.054 5.45675 10.2509 5.42351 10.4438L4.75859 14.3023L8.22275 12.4776C8.39595 12.3864 8.60298 12.3864 8.77617 12.4776L12.2415 14.3029L11.5797 10.4433C11.5466 10.2507 11.6105 10.0541 11.7505 9.91772L14.5532 7.18686L10.6772 6.62676C10.4835 6.59877 10.316 6.47708 10.2295 6.30147L8.49946 2.78907Z" fill="#212121"/>
</svg>
