<svg width="21" height="26" viewBox="0 0 21 26" fill="none" xmlns="http://www.w3.org/2000/svg">
<rect width="21" height="26" rx="2" fill="#EFF1F4"/>
<path d="M5.64301 10.5918C5.64301 9.95426 6.64485 9.95426 6.64485 10.5918V13.5878C6.64485 14.7794 6.07562 15.5004 4.76356 15.5004C4.11844 15.5004 3.58052 15.3249 3.10996 14.7187C2.72289 14.2557 3.4515 13.5888 3.84616 14.0736C4.16492 14.4682 4.50646 14.5593 4.83945 14.5441C5.26353 14.529 5.63637 14.3383 5.64396 13.5878V10.5918H5.64301Z" fill="#14A085"/>
<path d="M7.97656 10.5906C7.97656 10.3401 8.17389 10.0669 8.49266 10.0669H10.2449C11.2316 10.0669 12.1196 10.7272 12.1196 11.9928C12.1196 13.1919 11.2316 13.8598 10.2449 13.8598H8.9784V14.8617C8.9784 15.1956 8.76589 15.3844 8.49266 15.3844C8.2422 15.3844 7.97656 15.1956 7.97656 14.8617V10.5906ZM8.9784 11.0222V12.9121H10.2449C10.7534 12.9121 11.1557 12.4633 11.1557 11.9928C11.1557 11.4624 10.7534 11.0222 10.2449 11.0222H8.9784Z" fill="#14A085"/>
<path d="M17.5352 14.8005C16.9963 15.2483 16.336 15.438 15.6691 15.438C14.0752 15.438 12.9453 14.5282 12.9453 12.7218C12.9453 11.1906 14.1369 10 15.7364 10C16.336 10 16.9954 10.204 17.4659 10.6669C17.9279 11.1214 17.261 11.7969 16.8066 11.3956C16.5257 11.1223 16.1311 10.9174 15.7364 10.9174C14.819 10.9174 13.932 11.6527 13.932 12.7218C13.932 13.8451 14.6748 14.5282 15.6691 14.5282C16.1311 14.5282 16.5257 14.3906 16.8066 14.1867V13.2541H15.6691C14.9936 13.2541 15.0619 12.3281 15.6691 12.3281H17.186C17.4669 12.3281 17.724 12.5406 17.724 12.7759V14.3916C17.724 14.5282 17.6642 14.6553 17.5352 14.8005Z" fill="#14A085"/>
</svg>
