<svg width="26" height="24" viewBox="0 0 26 24" fill="none" xmlns="http://www.w3.org/2000/svg">
<path d="M25.9949 15.5321L25.8166 14.7148C25.7902 14.5935 25.6696 14.5165 25.5474 14.5427L25.4046 14.5734L24.9024 11.3894C24.9017 11.3851 24.9009 11.3808 24.9 11.3766C24.8105 10.9659 24.4384 10.6678 24.0154 10.6678C23.9511 10.6678 23.8864 10.6747 23.8231 10.6882L23.4021 10.7786L21.7369 6.14912C21.6987 6.04285 21.587 5.98139 21.4757 6.00504L13.4464 7.7291C13.3353 7.75297 13.2592 7.85498 13.2686 7.96743L13.6813 12.8658L13.2603 12.9562C13.078 12.9954 12.9204 13.0868 12.8 13.2112C12.7676 12.7446 12.3756 12.3746 11.8973 12.3746H11.4666L10.8258 7.50037C10.8111 7.38842 10.7151 7.30473 10.6013 7.30473H2.38618C2.27245 7.30473 2.17632 7.38842 2.16166 7.50032L1.52087 12.3745H1.09017C0.590743 12.3745 0.184384 12.7777 0.184384 13.2732C0.184384 13.2776 0.184497 13.2819 0.18478 13.2863L0.372618 16.5036H0.226447C0.101391 16.5036 0 16.6042 0 16.7283V17.5645C0 17.6886 0.101391 17.7892 0.226447 17.7892H1.18528V18.8766C1.18528 19.3721 1.59164 19.7753 2.09106 19.7753H2.68141C3.18084 19.7753 3.5872 19.3721 3.5872 18.8766V17.7892H9.40048V18.8766C9.40048 19.3721 9.80684 19.7753 10.3063 19.7753H10.8966C11.396 19.7753 11.8024 19.3721 11.8024 18.8766V17.7892H12.7612C12.8862 17.7892 12.9876 17.6886 12.9876 17.5645V16.7283C12.9876 16.6042 12.8862 16.5036 12.7612 16.5036H12.6151L12.7264 14.5965L13.4393 17.1424L13.2964 17.1731C13.2377 17.1857 13.1865 17.2209 13.1539 17.271C13.1214 17.3211 13.1103 17.382 13.123 17.4402L13.3012 18.2576C13.3242 18.3628 13.4181 18.4348 13.5224 18.4348C13.5382 18.4348 13.5544 18.4331 13.5705 18.4297L14.5075 18.2285L14.7393 19.2912C14.8289 19.702 15.201 20 15.6239 20C15.6882 20 15.7529 19.9931 15.8162 19.9796L16.3931 19.8556C16.6296 19.8049 16.8321 19.6658 16.9631 19.464C17.0941 19.2621 17.138 19.0218 17.0869 18.7872L16.8552 17.7244L22.5369 16.5045L22.7686 17.5672C22.8582 17.978 23.2302 18.2761 23.6533 18.2761C23.7176 18.2761 23.7823 18.2691 23.8456 18.2556L24.4225 18.1317C24.9106 18.0269 25.2218 17.5475 25.1162 17.0632L24.8844 16.0004L25.8215 15.7992C25.8802 15.7866 25.9315 15.7513 25.964 15.7012C25.9965 15.6512 26.0076 15.5904 25.9949 15.5321ZM2.88776 8.32187C2.90248 8.20998 2.99855 8.12629 3.11228 8.12629H9.87522C9.98896 8.12629 10.0851 8.20998 10.0997 8.32187L10.6325 12.3745H2.35499L2.88776 8.32187ZM2.65543 15.9871C2.06582 15.9871 1.58615 15.5112 1.58615 14.9262C1.58615 14.3412 2.06582 13.8652 2.65543 13.8652C3.24504 13.8652 3.72471 14.3412 3.72471 14.9262C3.72471 15.5112 3.24504 15.9871 2.65543 15.9871ZM10.3321 15.9871C9.74247 15.9871 9.2628 15.5112 9.2628 14.9262C9.2628 14.3412 9.74247 13.8652 10.3321 13.8652C10.9217 13.8652 11.4014 14.3412 11.4014 14.9262C11.4013 15.5112 10.9216 15.9871 10.3321 15.9871ZM15.5603 16.1586C15.4856 16.1746 15.4092 16.1828 15.3334 16.1828C14.8341 16.1828 14.3948 15.8309 14.2891 15.3461C14.1644 14.7743 14.5318 14.2084 15.108 14.0847C15.1827 14.0687 15.2591 14.0605 15.335 14.0605C15.8343 14.0605 16.2735 14.4124 16.3793 14.8973C16.5039 15.4691 16.1365 16.0349 15.5603 16.1586ZM14.4966 12.6907L14.1534 8.61801C14.144 8.50555 14.2201 8.40355 14.3312 8.37967L20.9412 6.96046C21.0525 6.93647 21.1641 6.9982 21.2023 7.10453L22.5869 10.9537L14.4966 12.6907ZM23.736 14.0852C23.5813 14.3235 23.3424 14.4877 23.0633 14.5476C22.9886 14.5637 22.9122 14.5718 22.8363 14.5718C22.337 14.5718 21.8978 14.2199 21.792 13.7351C21.7316 13.4581 21.7835 13.1744 21.9382 12.9361C22.0929 12.6978 22.3318 12.5336 22.611 12.4737C22.6857 12.4577 22.762 12.4495 22.8379 12.4495C23.3373 12.4495 23.7765 12.8015 23.8822 13.2863C23.9426 13.5632 23.8907 13.847 23.736 14.0852Z" fill="#1F3BB3"/>
<path d="M13.5435 20.2396C13.4141 20.0661 13.1687 20.0304 12.995 20.1598L9.83142 22.52C9.65793 22.6495 9.6222 22.895 9.75166 23.0685C9.82861 23.1717 9.94658 23.2261 10.0661 23.2261C10.1476 23.2261 10.2298 23.2008 10.3002 23.1483L13.4638 20.7882C13.6373 20.6586 13.673 20.4131 13.5435 20.2396Z" fill="#52C4FF"/>
<path d="M14.5192 21.0059C14.3114 20.9456 14.0939 21.0651 14.0335 21.273L13.5816 22.8296C13.5212 23.0375 13.6408 23.2549 13.8487 23.3153C13.8852 23.3259 13.922 23.3309 13.9581 23.3309C14.128 23.3309 14.2846 23.2195 14.3343 23.0481L14.7863 21.4914C14.8466 21.2837 14.727 21.0662 14.5192 21.0059Z" fill="#52C4FF"/>
<path d="M12.1915 7.98578C12.2623 8.11727 12.3973 8.19193 12.5369 8.19193C12.5996 8.19193 12.6633 8.17684 12.7224 8.14503C12.9129 8.04241 12.9843 7.80477 12.8816 7.61417L10.0696 2.39169C9.967 2.20115 9.7293 2.12988 9.53869 2.23243C9.34815 2.33505 9.27682 2.57269 9.37944 2.7633L12.1915 7.98578Z" fill="#52C4FF"/>
<path d="M6.42171 4.51551L9.23378 5.77092C9.28564 5.7941 9.33993 5.80508 9.39329 5.80508C9.5432 5.80508 9.68632 5.71859 9.75138 5.5728C9.83963 5.37513 9.75093 5.14337 9.55326 5.05512L6.74119 3.79972C6.54373 3.7116 6.31177 3.80017 6.22352 3.99783C6.1354 4.1955 6.22411 4.42726 6.42171 4.51551Z" fill="#52C4FF"/>
<path d="M12.6468 4.96699C12.6524 4.96699 12.6581 4.96686 12.6638 4.96667C12.8801 4.95739 13.0478 4.77456 13.0386 4.55828L12.888 1.04316C12.8787 0.826884 12.6963 0.658879 12.4797 0.66835C12.2634 0.677626 12.0956 0.860459 12.1049 1.07667L12.2555 4.59179C12.2645 4.80238 12.4381 4.96699 12.6468 4.96699Z" fill="#52C4FF"/>
</svg>
