<svg width="21" height="24" viewBox="0 0 21 24" fill="none" xmlns="http://www.w3.org/2000/svg">
<path d="M19.281 10.848C18.9713 10.848 18.7198 11.097 18.7198 11.4037V15.2936H3.0071V8.62524H10.109C10.6613 8.62524 11.109 8.17753 11.109 7.62524V5.17969C11.109 4.6274 10.6613 4.17969 10.109 4.17969H3.0071C2.38757 4.17969 1.88477 4.67759 1.88477 5.29108V15.2936C1.88477 15.9071 2.38757 16.405 3.0071 16.405H18.7198C19.3394 16.405 19.8422 15.9071 19.8422 15.2936V11.4037C19.8422 11.097 19.5908 10.848 19.281 10.848Z" fill="#1F3BB3"/>
<path d="M16.8063 12.6816H14.5617C14.2519 12.6816 14.0005 12.9306 14.0005 13.2373C14.0005 13.5441 14.2519 13.793 14.5617 13.793H16.8063C17.1161 13.793 17.3675 13.5441 17.3675 13.2373C17.3675 12.9306 17.1161 12.6816 16.8063 12.6816Z" fill="#1F3BB3"/>
<g clip-path="url(#clip0)">
<path d="M18.8333 3.8457H18.3333V3.17903C18.3333 1.89242 17.2866 0.845703 16 0.845703C14.7134 0.845703 13.6667 1.89242 13.6667 3.17903V3.8457H13.1667C13.0745 3.8457 13 3.92025 13 4.01238V8.17905C13 8.54672 13.299 8.8457 13.6667 8.8457H18.3333C18.701 8.8457 19 8.54672 19 8.17903V4.01238C19 3.92025 18.9255 3.8457 18.8333 3.8457ZM16.499 7.32731C16.5042 7.37434 16.4891 7.42155 16.4575 7.45687C16.426 7.49219 16.3807 7.51237 16.3333 7.51237H15.6667C15.6193 7.51237 15.5741 7.49219 15.5425 7.45687C15.5109 7.42156 15.4958 7.37436 15.501 7.32731L15.6061 6.38184C15.4354 6.25766 15.3333 6.0612 15.3333 5.8457C15.3333 5.47803 15.6323 5.17903 16 5.17903C16.3677 5.17903 16.6667 5.47802 16.6667 5.8457C16.6667 6.0612 16.5646 6.25766 16.3939 6.38184L16.499 7.32731ZM17.3333 3.8457H14.6667V3.17903C14.6667 2.44384 15.2648 1.8457 16 1.8457C16.7352 1.8457 17.3333 2.44384 17.3333 3.17903V3.8457Z" fill="#52C4FF"/>
</g>
<path fill-rule="evenodd" clip-rule="evenodd" d="M8.50966 16.3769L8.49972 16.3993L6.47812 11.8288C6.44833 11.7612 6.39023 11.7104 6.31943 11.6899C6.24862 11.6689 6.17196 11.6806 6.11093 11.7219L5.81503 11.9192C5.461 12.1552 5.24957 12.5502 5.24957 12.9758C5.24957 13.144 5.28229 13.3083 5.34724 13.4643L7.50616 18.6458L6.94153 19.9212C6.651 19.7625 6.33018 19.6798 5.9996 19.6798C4.89653 19.6798 3.99951 20.577 3.99951 21.6797C3.99951 22.7825 4.89651 23.6797 5.9996 23.6797C7.10266 23.6797 7.99968 22.7825 7.99968 21.6797C7.99968 20.9402 8.2417 20.3996 8.49937 20.03C8.74987 20.3885 8.98385 20.9019 8.99875 21.6084C9.02219 22.7144 9.85474 23.6228 10.8933 23.677C10.9295 23.6787 10.9651 23.6797 11.0003 23.6797C11.5867 23.6797 12.1356 23.4282 12.5194 22.9802C12.9266 22.5049 13.0853 21.8748 12.9549 21.2518C12.8021 20.5191 12.2313 19.9268 11.5003 19.7428C11.0003 19.6173 10.4978 19.6805 10.0574 19.921L9.49317 18.6454L10.4325 16.3911H8.50966V16.3769ZM4.99952 21.6797C4.99952 22.2312 5.44825 22.6797 5.99953 22.6797C6.5508 22.6797 6.99953 22.2312 6.99953 21.6797C6.99953 21.1282 6.5508 20.6797 5.99953 20.6797C5.44825 20.6797 4.99952 21.1282 4.99952 21.6797ZM7.99952 18.6798C7.99952 18.9554 8.22363 19.1798 8.49951 19.1798C8.77539 19.1798 8.9995 18.9554 8.9995 18.6798C8.9995 18.4042 8.77539 18.1798 8.49951 18.1798C8.22365 18.1798 7.99952 18.4042 7.99952 18.6798ZM9.99951 21.6797C9.99951 22.2312 10.4482 22.6797 10.9995 22.6797C11.5508 22.6797 11.9995 22.2312 11.9995 21.6797C11.9995 21.1282 11.5508 20.6797 10.9995 20.6797C10.4482 20.6797 9.99951 21.1282 9.99951 21.6797Z" fill="#52C4FF"/>
<defs>
<clipPath id="clip0">
<rect x="11.9863" y="0.845703" width="9.01378" height="8.92585" fill="white"/>
</clipPath>
</defs>
</svg>
