<svg width="21" height="26" viewBox="0 0 21 26" fill="none" xmlns="http://www.w3.org/2000/svg">
<rect opacity="0.3" width="21" height="26" rx="2" fill="#C9D0DA"/>
<path d="M3 10.5417C3 10.2826 3.2041 10 3.53283 10H5.34523C6.36575 10 7.28421 10.683 7.28421 11.992C7.28421 13.2323 6.36575 13.9231 5.34523 13.9231H4.03524V14.9593C4.03524 15.3047 3.81543 15.5 3.53283 15.5C3.27377 15.5 3 15.3047 3 14.9593V10.5417V10.5417ZM4.03524 10.9881V12.9428H5.34523C5.87119 12.9428 6.28724 12.4787 6.28724 11.992C6.28724 11.4434 5.87119 10.9881 5.34523 10.9881H4.03524Z" fill="#F15642"/>
<path d="M8.82095 15.4988C8.5619 15.4988 8.2793 15.3575 8.2793 15.0131V10.5562C8.2793 10.2745 8.5619 10.0695 8.82095 10.0695H10.6176C14.2032 10.0695 14.1247 15.4988 10.6883 15.4988H8.82095V15.4988ZM9.31551 11.0272V14.5421H10.6176C12.7362 14.5421 12.8304 11.0272 10.6176 11.0272H9.31551V11.0272Z" fill="#F15642"/>
<path d="M15.3936 11.091V12.3381H17.3944C17.677 12.3381 17.9596 12.6208 17.9596 12.8945C17.9596 13.1536 17.677 13.3655 17.3944 13.3655H15.3936V15.0131C15.3936 15.2878 15.1983 15.4988 14.9236 15.4988C14.5782 15.4988 14.3672 15.2878 14.3672 15.0131V10.5562C14.3672 10.2745 14.5791 10.0695 14.9236 10.0695H17.678C18.0234 10.0695 18.2275 10.2745 18.2275 10.5562C18.2275 10.8074 18.0234 11.09 17.678 11.09H15.3936V11.091Z" fill="#F15642"/>
</svg>
