<svg width="15" height="17" viewBox="0 0 15 17" fill="none" xmlns="http://www.w3.org/2000/svg">
<path d="M7.4987 2.95964C11.2151 2.95964 14.2279 5.97239 14.2279 9.6888C14.2279 13.4052 11.2151 16.418 7.4987 16.418C3.78228 16.418 0.769531 13.4052 0.769531 9.6888C0.769531 5.97239 3.78228 2.95964 7.4987 2.95964ZM7.4987 4.14714C4.43812 4.14714 1.95703 6.62822 1.95703 9.6888C1.95703 12.7494 4.43812 15.2305 7.4987 15.2305C10.5593 15.2305 13.0404 12.7494 13.0404 9.6888C13.0404 6.62822 10.5593 4.14714 7.4987 4.14714ZM7.4987 5.33464C7.79929 5.33464 8.04771 5.55801 8.08703 5.84782L8.09245 5.92839V9.49089C8.09245 9.8188 7.82662 10.0846 7.4987 10.0846C7.19811 10.0846 6.94968 9.86126 6.91037 9.57145L6.90495 9.49089V5.92839C6.90495 5.60047 7.17078 5.33464 7.4987 5.33464ZM13.1569 3.04965L13.2223 3.09703L14.1394 3.86034C14.3914 4.07012 14.4257 4.4445 14.2159 4.69654C14.0236 4.92757 13.693 4.97561 13.4451 4.82043L13.3797 4.77305L12.4626 4.00974C12.2106 3.79996 12.1763 3.42558 12.3861 3.17354C12.5784 2.94251 12.909 2.89447 13.1569 3.04965ZM9.27995 0.980469C9.60787 0.980469 9.8737 1.2463 9.8737 1.57422C9.8737 1.87481 9.65033 2.12323 9.36052 2.16255L9.27995 2.16797H5.71745C5.38953 2.16797 5.1237 1.90214 5.1237 1.57422C5.1237 1.27363 5.34707 1.02521 5.63688 0.985889L5.71745 0.980469H9.27995Z" fill="#212121"/>
</svg>
