<svg width="15" height="17" viewBox="0 0 15 17" fill="none" xmlns="http://www.w3.org/2000/svg">
<path d="M11.4583 0.976562C12.9894 0.976562 14.2306 2.21773 14.2306 3.7488C14.2306 5.27986 12.9894 6.52103 11.4583 6.52103C10.6429 6.52103 9.90978 6.169 9.40252 5.60864L5.7936 7.67047C5.87539 7.93204 5.91947 8.21027 5.91947 8.4988C5.91947 8.78732 5.87539 9.06555 5.7936 9.32712L9.40178 11.3898C9.90907 10.8289 10.6426 10.4766 11.4583 10.4766C12.9894 10.4766 14.2306 11.7177 14.2306 13.2488C14.2306 14.7799 12.9894 16.021 11.4583 16.021C9.92727 16.021 8.6861 14.7799 8.6861 13.2488C8.6861 12.9603 8.73018 12.682 8.81196 12.4205L5.20378 10.3578C4.6965 10.9187 3.96301 11.271 3.14723 11.271C1.61617 11.271 0.375 10.0299 0.375 8.4988C0.375 6.96773 1.61617 5.72656 3.14723 5.72656C3.96262 5.72656 4.69579 6.07859 5.20305 6.63895L8.81196 4.57712C8.73018 4.31555 8.6861 4.03732 8.6861 3.7488C8.6861 2.21773 9.92727 0.976562 11.4583 0.976562ZM11.4583 11.6641C10.5831 11.6641 9.8736 12.3736 9.8736 13.2488C9.8736 14.124 10.5831 14.8335 11.4583 14.8335C12.3336 14.8335 13.0431 14.124 13.0431 13.2488C13.0431 12.3736 12.3336 11.6641 11.4583 11.6641ZM3.14723 6.91406C2.27201 6.91406 1.5625 7.62357 1.5625 8.4988C1.5625 9.37402 2.27201 10.0835 3.14723 10.0835C4.02246 10.0835 4.73197 9.37402 4.73197 8.4988C4.73197 7.62357 4.02246 6.91406 3.14723 6.91406ZM11.4583 2.16406C10.5831 2.16406 9.8736 2.87357 9.8736 3.7488C9.8736 4.62402 10.5831 5.33353 11.4583 5.33353C12.3336 5.33353 13.0431 4.62402 13.0431 3.7488C13.0431 2.87357 12.3336 2.16406 11.4583 2.16406Z" fill="#212121"/>
</svg>
