<svg width="13" height="17" viewBox="0 0 13 17" fill="none" xmlns="http://www.w3.org/2000/svg">
<path d="M5.56821 0.584501L5.64771 0.597721L12.3769 2.18105C12.6183 2.23785 12.7959 2.43739 12.8291 2.67759L12.8346 2.75902V14.2382C12.8346 14.4862 12.6811 14.7048 12.4549 14.7921L12.3769 14.8162L5.64771 16.3995C5.30163 16.4809 4.96905 16.2429 4.92331 15.9019L4.91797 15.8215V1.17569C4.91797 0.847505 5.18028 0.592864 5.48993 0.582031L5.56821 0.584501ZM6.10547 1.92536V15.0718L11.6471 13.7679V3.22928L6.10547 1.92536ZM4.1263 2.16527V3.35277H1.35547V13.6444H4.1263V14.8319H0.761719C0.461126 14.8319 0.212705 14.6086 0.173389 14.3188L0.167969 14.2382V2.75902C0.167969 2.45843 0.391341 2.21001 0.68115 2.17069L0.761719 2.16527H4.1263ZM8.08463 7.70694C8.52186 7.70694 8.8763 8.06138 8.8763 8.4986C8.8763 8.93583 8.52186 9.29027 8.08463 9.29027C7.64741 9.29027 7.29297 8.93583 7.29297 8.4986C7.29297 8.06138 7.64741 7.70694 8.08463 7.70694Z" fill="#212121"/>
</svg>
